<svg id="Layer_1" data-name="Layer 1" xmlns="http://www.w3.org/2000/svg" viewBox="0 0 130.74 138"><defs><style>.cls-1,.cls-2{fill:#fff;}.cls-2{stroke:#000;stroke-linejoin:round;stroke-width:10px;}.cls-3{font-size:81.29px;font-family:Quicksand-Bold, Quicksand;font-weight:700;}</style></defs><title>logo-zoo</title><path class="cls-1" d="M288.66,227l-29.51-47.5L288.66,132h59.68l29.35,47.23c0,.19,0,.38,0,.56L348.34,227Z" transform="translate(-253 -94)"/><path d="M345.56,137,372,179.5,345.56,222H291.44L265,179.5,291.44,137h54.12m5.56-10H285.88l-32.62,52.5L285.88,232h65.24l31.52-50.73c0-1.13.05-2.26.1-3.39L351.12,127Z" transform="translate(-253 -94)"/><path class="cls-1" d="M288.77,202,259,150.5,288.77,99h59.47l29.46,51q0,.5,0,1l-29.43,51Z" transform="translate(-253 -94)"/><path d="M345.35,104l26.85,46.5L345.35,197H291.65l-26.85-46.5L291.65,104h53.69m5.77-10H285.88l-32.62,56.5L285.88,207h65.24l31.52-54.59c0-1.22.05-2.43.1-3.64L351.12,94Z" transform="translate(-253 -94)"/><path class="cls-1" d="M382.74,148.76c0,1.21-.08,2.43-.1,3.64l1.1-1.91Z" transform="translate(-253 -94)"/><path d="M382.74,148.76c0,1.21-.08,2.43-.1,3.64l1.1-1.91-1-1.74Z" transform="translate(-253 -94)"/><line class="cls-2" x1="5" y1="82" x2="5" y2="57"/><line class="cls-2" x1="125" y1="82" x2="125" y2="57"/><line class="cls-2" x1="36" y1="132" x2="36" y2="108"/><line class="cls-2" x1="94" y1="134" x2="94" y2="108"/><text class="cls-3" transform="translate(38.23 85.57)">Z</text></svg>