<svg id="Layer_13" data-name="Layer 13" xmlns="http://www.w3.org/2000/svg" viewBox="0 0 225.18 75.5"><defs><style>.cls-1{fill:#f2f2f2;stroke:#e6e6e6;stroke-miterlimit:10;stroke-width:5px;}</style></defs><title>cloud-1</title><path class="cls-1" d="M316.63,175.21h65.14s8.57-1.71,8.57,8.57-8.14,8.14-8.14,8.14H347.48s-6.64,0-6.64,6.64a5.76,5.76,0,0,0,6.21,6.21H452.91s6.64,0,6.64,6.64-5.79,5.79-5.79,5.79H374.91s-7.71,0-7.71,7.71,7.29,7.29,7.29,7.29h13.29s6.64,0,6.64,6.64-6.64,6.64-6.64,6.64H296.05s-6-.86-6-6,6-6,6-6h20.57s7.29-.86,7.29-7.29-7.71-7.71-7.71-7.71H284.05s-7.93-1.71-7.93-7.93-6.86-6.86-6.86-6.86H248.05s-8.68-.86-8.68-8.68,9.11-9.11,9.11-9.11h43.29s5.36,0,5.36-5.36S302.7,175,302.7,175Z" transform="translate(-236.88 -172.5)"/></svg>