<svg id="Layer_1" data-name="Layer 1" xmlns="http://www.w3.org/2000/svg" viewBox="0 0 61 87"><defs><style>.cls-1,.cls-3{fill:none;stroke:#000;stroke-miterlimit:10;stroke-width:5px;}.cls-2{fill:#f9f9f9;}.cls-3{stroke-linecap:round;}</style></defs><title>icon-hint</title><path class="cls-1" d="M298.5,197.5" transform="translate(-288 -119)"/><path class="cls-2" d="M298.57,169.17a28,28,0,1,1,19.93,8.33A28,28,0,0,1,298.57,169.17Z" transform="translate(-288 -119)"/><path class="cls-2" d="M338.43,169.17l-3.85,22.1a12.11,12.11,0,0,1-5.08,2.16,32.31,32.31,0,0,0-22,0,12.11,12.11,0,0,1-5.08-2.16l-3.85-22.1a28,28,0,0,0,39.86,0Z" transform="translate(-288 -119)"/><path class="cls-2" d="M334.58,191.27l-1.08,6.23c0-1.58-1.52-3-4-4.07A12.11,12.11,0,0,0,334.58,191.27Z" transform="translate(-288 -119)"/><path class="cls-2" d="M329.5,193.43c2.48,1.06,4,2.49,4,4.07,0,3.31-6.72,6-15,6s-15-2.69-15-6c0-1.58,1.52-3,4-4.07A56.56,56.56,0,0,0,329.5,193.43Z" transform="translate(-288 -119)"/><path class="cls-2" d="M318.5,191.5a28.7,28.7,0,0,1,11,1.93,56.56,56.56,0,0,1-22,0A28.7,28.7,0,0,1,318.5,191.5Z" transform="translate(-288 -119)"/><path class="cls-2" d="M307.5,193.43c-2.48,1.06-4,2.49-4,4.07l-1.08-6.23A12.11,12.11,0,0,0,307.5,193.43Z" transform="translate(-288 -119)"/><path class="cls-3" d="M298.57,169.17a28,28,0,1,1,39.86,0" transform="translate(-288 -119)"/><path class="cls-3" d="M333.5,197.5c0,3.31-6.72,6-15,6s-15-2.69-15-6" transform="translate(-288 -119)"/><line class="cls-3" x1="14.42" y1="72.27" x2="10.57" y2="50.17"/><line class="cls-3" x1="46.58" y1="72.27" x2="50.43" y2="50.17"/><path class="cls-3" d="M301.5,189.5a2.36,2.36,0,0,0,.92,1.77,12.11,12.11,0,0,0,5.08,2.16,56.56,56.56,0,0,0,22,0,12.11,12.11,0,0,0,5.08-2.16,2.36,2.36,0,0,0,.92-1.77" transform="translate(-288 -119)"/><path class="cls-1" d="M301.5,180.5c0,6.68,34,6.68,34,0" transform="translate(-288 -119)"/><line class="cls-1" x1="37.5" y1="64.5" x2="37.5" y2="34.5"/><line class="cls-1" x1="23.5" y1="64.5" x2="23.5" y2="34.5"/><circle class="cls-1" cx="21.5" cy="28.5" r="5"/><circle class="cls-1" cx="39.5" cy="28.5" r="5"/><line class="cls-1" x1="26.5" y1="28.5" x2="34.5" y2="28.5"/></svg>