<svg id="Layer_1" data-name="Layer 1" xmlns="http://www.w3.org/2000/svg" viewBox="0 0 132.54 86"><defs><style>.cls-1,.cls-2{fill:#fff;}.cls-1{stroke:#000;stroke-miterlimit:10;stroke-width:5px;}.cls-3{font-size:38.21px;font-family:Quicksand-Bold, Quicksand;font-weight:700;}</style></defs><title>icon-buy</title><polyline class="cls-1" points="73.5 31.8 100.89 31.8 100.89 14.5 129 42.61 101.61 70 101.61 56.3 73.5 56.3"/><path class="cls-2" d="M332.5,200.5a36,36,0,1,1,36-36A36,36,0,0,1,332.5,200.5Z" transform="translate(-294 -117)"/><path d="M332.5,131A33.5,33.5,0,1,1,299,164.5,33.54,33.54,0,0,1,332.5,131m0-5A38.5,38.5,0,1,0,371,164.5,38.5,38.5,0,0,0,332.5,126Z" transform="translate(-294 -117)"/><path class="cls-2" d="M332.5,191.5a36,36,0,1,1,36-36A36,36,0,0,1,332.5,191.5Z" transform="translate(-294 -117)"/><path d="M332.5,122A33.5,33.5,0,1,1,299,155.5,33.54,33.54,0,0,1,332.5,122m0-5A38.5,38.5,0,1,0,371,155.5,38.5,38.5,0,0,0,332.5,117Z" transform="translate(-294 -117)"/><text class="cls-3" transform="translate(19.93 51.48) scale(1.18 1)">M</text></svg>