<svg id="Layer_1" data-name="Layer 1" xmlns="http://www.w3.org/2000/svg" viewBox="0 0 77.22 104"><defs><style>.cls-1,.cls-3{fill:#fff;}.cls-1,.cls-2{stroke:#000;stroke-miterlimit:10;stroke-width:5px;}.cls-2{fill:none;}</style></defs><title>icon-timer</title><rect class="cls-1" x="328.5" y="137.5" width="16" height="16" transform="translate(-341.01 126.16) rotate(-37.38)"/><circle class="cls-2" cx="51.72" cy="35.5" r="19"/><path class="cls-3" d="M361,209.5A35.5,35.5,0,1,1,396.5,174,35.54,35.54,0,0,1,361,209.5Z" transform="translate(-321.78 -108)"/><path d="M361,141a33,33,0,1,1-33,33,33,33,0,0,1,33-33m0-5a38,38,0,1,0,38,38,38,38,0,0,0-38-38Z" transform="translate(-321.78 -108)"/><rect class="cls-1" x="19.72" y="2.5" width="39" height="17" rx="8.5" ry="8.5"/><rect class="cls-1" x="32.72" y="20.5" width="12" height="9"/><circle class="cls-1" cx="39.22" cy="66" r="26.5"/></svg>