<svg id="Layer_1" data-name="Layer 1" xmlns="http://www.w3.org/2000/svg" viewBox="0 0 102.59 105"><defs><style>.cls-1{fill:#aa8900;}.cls-2{fill:#c4b60c;}.cls-3{fill:#6b6b1c;}.cls-4{fill:#82781d;}.cls-5{fill:#bcb89b;}.cls-6{fill:#b71d49;}.cls-7{fill:#dbd119;}.cls-8{fill:#e8e3a7;}.cls-9{fill:#777669;}.cls-10{fill:#f9f9f9;}.cls-11{fill:#3d3c2f;}</style></defs><title>character-leopard</title><rect class="cls-1" x="34.59" y="70" width="35" height="35"/><polygon class="cls-1" points="78.59 53 92.59 105 69.59 105 69.59 53 78.59 53"/><polygon class="cls-1" points="25.59 53 11.59 105 34.59 105 34.59 53 25.59 53"/><circle class="cls-2" cx="51.59" cy="41" r="41"/><rect class="cls-3" x="244.32" y="79.68" width="18.37" height="19" rx="7" ry="7" transform="translate(-56.09 285.68) rotate(-90)"/><rect class="cls-3" x="281.32" y="79.68" width="18.37" height="19" rx="7" ry="7" transform="translate(-19.09 322.68) rotate(-90)"/><rect class="cls-4" x="25.59" y="30" width="53" height="59" rx="22.17" ry="22.17"/><rect class="cls-3" x="42.59" y="30" width="18" height="30" rx="7" ry="7"/><rect class="cls-5" x="37.59" y="80" width="28" height="11" rx="5.5" ry="5.5"/><rect class="cls-6" x="37.59" y="58" width="28" height="11" rx="5.5" ry="5.5"/><rect class="cls-6" x="45.59" y="67" width="12" height="6" rx="3" ry="3"/><path class="cls-7" d="M246,64s-1.16-7-7-7H220.41v9.31s7,10.47,10.47,10.47,8.72,8.72,8.72,8.72l6.4-6.4Z" transform="translate(-220.41 -57)"/><polygon class="cls-8" points="19.59 6 8.59 6 16.09 13.5 19.59 13.5 19.59 6"/><path class="cls-7" d="M297.41,64s1.16-7,7-7H323v9.31s-7,10.47-10.47,10.47-8.72,8.72-8.72,8.72l-6.4-6.4Z" transform="translate(-220.41 -57)"/><polygon class="cls-8" points="83 6 94 6 86.5 13.5 83 13.5 83 6"/><circle class="cls-9" cx="46.59" cy="24" r="3"/><circle class="cls-9" cx="46.59" cy="15" r="3"/><circle class="cls-9" cx="46.59" cy="6" r="3"/><circle class="cls-9" cx="56.59" cy="24" r="3"/><circle class="cls-9" cx="56.59" cy="15" r="3"/><circle class="cls-9" cx="56.59" cy="6" r="3"/><circle class="cls-9" cx="37.59" cy="17" r="3"/><circle class="cls-9" cx="37.59" cy="8" r="3"/><circle class="cls-9" cx="65.59" cy="17" r="3"/><circle class="cls-9" cx="65.59" cy="8" r="3"/><circle class="cls-9" cx="30.59" cy="13" r="3"/><circle class="cls-9" cx="72.59" cy="13" r="3"/><circle class="cls-9" cx="30.59" cy="67" r="3"/><circle class="cls-9" cx="73.59" cy="67" r="3"/><circle class="cls-9" cx="34.59" cy="77" r="3"/><circle class="cls-9" cx="69.59" cy="77" r="3"/><circle class="cls-9" cx="17.59" cy="35" r="3"/><circle class="cls-9" cx="85.59" cy="35" r="3"/><circle class="cls-9" cx="18.59" cy="45" r="3"/><circle class="cls-9" cx="84.59" cy="45" r="3"/><circle class="cls-9" cx="19.59" cy="55" r="3"/><circle class="cls-9" cx="83.59" cy="55" r="3"/><circle class="cls-9" cx="31.59" cy="56" r="3"/><circle class="cls-9" cx="72.59" cy="56" r="3"/><circle cx="32.59" cy="33" r="7"/><circle class="cls-10" cx="33.59" cy="32" r="5"/><circle cx="70.59" cy="33" r="7"/><circle class="cls-10" cx="71.59" cy="32" r="5"/><circle class="cls-11" cx="31.59" cy="98" r="3"/><circle class="cls-11" cx="21.59" cy="98" r="3"/><circle class="cls-11" cx="41.59" cy="98" r="3"/><circle class="cls-11" cx="51.59" cy="98" r="3"/><circle class="cls-11" cx="61.59" cy="98" r="3"/><circle class="cls-11" cx="71.59" cy="98" r="3"/><circle class="cls-11" cx="81.59" cy="98" r="3"/><circle class="cls-11" cx="30.59" cy="89" r="3"/><circle class="cls-11" cx="21.59" cy="87" r="3"/><circle class="cls-11" cx="72.59" cy="89" r="3"/><circle class="cls-11" cx="81.59" cy="87" r="3"/></svg>