<svg id="Layer_1" data-name="Layer 1" xmlns="http://www.w3.org/2000/svg" viewBox="0 0 98 110"><defs><style>.cls-1{fill:#4d1154;}.cls-2{fill:#4d3f4f;}.cls-3{fill:gray;}.cls-4{fill:#e5e3e3;}.cls-5{fill:#4f4545;}.cls-6{fill:#c6c4c4;}.cls-7{fill:#f9f9f9;}.cls-8{fill:none;}</style></defs><title>character-rhino</title><path class="cls-1" d="M314,212.88V187.44c0-14-5.4-25.44-12-25.44H240c-6.6,0-12,11.45-12,25.44v25.44c0,.72,0,1.42.05,2.12h85.9C314,214.3,314,213.6,314,212.88Z" transform="translate(-222 -105)"/><rect class="cls-2" x="12" y="65" width="74" height="40" rx="20" ry="20"/><path class="cls-3" d="M271,111h0a31.55,31.55,0,0,0-31.46,31.46V170a12,12,0,0,0,12,12h38.91a12,12,0,0,0,12-12V142.46A31.55,31.55,0,0,0,271,111Z" transform="translate(-222 -105)"/><path class="cls-4" d="M271.79,105l-6.41,20.41s-7.24,3.23-4.82,4.3,16.09,1.41,20.92,0c.8-.72,1.61-.72-4.83-4.65" transform="translate(-222 -105)"/><rect class="cls-3" x="28.18" y="51" width="41.65" height="47" rx="12" ry="12"/><path class="cls-5" d="M246,121s-5-1-5-4-3-9-9-4-3,16-3,16l8-2-6,6s-2,3,1,4,5,1,5,3,2,5,6,3,4-1,4-1l4-15h-4S251,125,246,121Z" transform="translate(-222 -105)"/><path class="cls-5" d="M296.25,121s5-1,5-4,3-9,9-4,3,16,3,16l-8-2,6,6s2,3-1,4-5,1-5,3-2,5-6,3-4-1-4-1l-4-15h4S291.25,125,296.25,121Z" transform="translate(-222 -105)"/><path class="cls-6" d="M272,109l-8,57s-9,9-6,12,20,4,26,0c1-2,2-2-6-13" transform="translate(-222 -105)"/><circle cx="27" cy="66" r="7"/><circle class="cls-7" cx="28" cy="65" r="5"/><circle cx="71" cy="66" r="7"/><circle class="cls-7" cx="72" cy="65" r="5"/><polyline class="cls-5" points="35 84 49 91 63 84"/><ellipse class="cls-2" cx="40" cy="84" rx="5" ry="3"/><ellipse class="cls-2" cx="58" cy="84" rx="5" ry="3"/><polyline class="cls-5" points="35 100 49 91.11 63 100"/><line class="cls-8" y1="110" x2="98" y2="110"/></svg>