<svg id="Layer_1" data-name="Layer 1" xmlns="http://www.w3.org/2000/svg" viewBox="0 0 110 109.64"><defs><style>.cls-1{fill:#4c1414;}.cls-2{fill:#eddbd9;}.cls-3{fill:#a09c9c;}.cls-4{fill:#f9f9f9;}.cls-5{fill:#d35437;}.cls-6{fill:#ededed;}.cls-7{fill:#070707;}.cls-8{fill:#fcf8f7;}.cls-9{fill:#f255a4;}</style></defs><title>character-redpanda</title><path class="cls-1" d="M331,165s-2,23-9,26c6-2,4-2,4-2s-4,13-11,15c11-1,12-3,12-3l-13,14h34V165Z" transform="translate(-305 -105.36)"/><polygon class="cls-1" points="29.21 94.64 35 94.64 41 109.64 55 109.64 55 70.64 29.21 70.64 29.21 94.64"/><path class="cls-2" d="M345,134s-2-20-12-22-17-4-18-6-4,1-4,5,7,18,4,23-10,5-10,5l6,5-6,5h15l13-4Z" transform="translate(-305 -105.36)"/><polygon class="cls-3" points="15.85 17.98 22.48 36.46 28.97 30.39 31.64 19.3 15.85 17.98"/><path class="cls-1" d="M389,165s2,23,9,26c-6-2-4-2-4-2s4,13,11,15c-11-1-12-3-12-3l13,14H372V165Z" transform="translate(-305 -105.36)"/><polygon class="cls-1" points="80.79 94.64 75 94.64 69 109.64 55 109.64 55 70.64 80.79 70.64 80.79 94.64"/><path class="cls-2" d="M375,134s2-20,12-22,17-4,18-6,4,1,4,5-7,18-4,23,10,5,10,5l-6,5,6,5H400l-13-4Z" transform="translate(-305 -105.36)"/><polygon class="cls-3" points="94.15 17.98 87.52 36.46 81.03 30.39 78.36 19.3 94.15 17.98"/><path class="cls-3" d="M360,156v32c-12.7,0-23-7.16-23-16S347.3,156,360,156Zm0,0v32c12.7,0,23-7.16,23-16S372.7,156,360,156Z" transform="translate(-305 -105.36)"/><path class="cls-4" d="M388.16,173.37a10,10,0,0,0,6.31,7c-6.26-.93-7.59-2.72-7.59-2.72l2.84,4.58-6.78-3.88.87,4.92a10.39,10.39,0,0,0-7.76-3.71Z" transform="translate(-305 -105.36)"/><polygon class="cls-5" points="55.01 78.64 55.01 78.64 55.01 78.64 55.01 78.64"/><polygon class="cls-5" points="55 78.64 55 78.64 55.01 78.64 55 78.64"/><path class="cls-5" d="M360,108v76c-15,0-26-12-36-13s-15-18-3-26,9-15,15-27,23.84-10,24-10Zm0,0v76c15,0,26-12,36-13s15-18,3-26-9-15-15-27-23.84-10-24-10Z" transform="translate(-305 -105.36)"/><polygon class="cls-5" points="55 2.63 55.01 2.64 55 2.64 55 2.63"/><path class="cls-6" d="M372.75,126.92s12.79,4,14.36,13.92,11.72,16.36,11.72,16.36L388,158.92l1.41,8.89-10.82-4.35S385.41,149.2,372.75,126.92Z" transform="translate(-305 -105.36)"/><circle cx="70" cy="38.64" r="7"/><path class="cls-4" d="M360,147v20.45c-6.06,0-16.67,4.55-16.67,4.55l3-5.3-3-4.55,4.55-2.27C351.67,159.88,360,147,360,147Zm0,0v20.45c6.06,0,16.67,4.55,16.67,4.55l-3-5.3,3-4.55-4.55-2.27C368.33,159.88,360,147,360,147Z" transform="translate(-305 -105.36)"/><path class="cls-7" d="M352.5,163.5,360,156v18l-7.5-4Zm15,0L360,156v18l7.5-4Z" transform="translate(-305 -105.36)"/><path class="cls-8" d="M360,179.21v6.07h-4.29s-4.46-4.82-5.71-6.07Zm0,0v6.07h4.29s4.46-4.82,5.71-6.07Z" transform="translate(-305 -105.36)"/><path class="cls-4" d="M331.84,173.37a10,10,0,0,1-6.31,7c6.26-.93,7.59-2.72,7.59-2.72l-2.84,4.58,6.78-3.88-.87,4.92a10.39,10.39,0,0,1,7.76-3.71Z" transform="translate(-305 -105.36)"/><polygon class="cls-5" points="54.99 78.64 54.99 78.64 54.99 78.64 54.99 78.64"/><polygon class="cls-5" points="55 78.64 55 78.64 54.99 78.64 55 78.64"/><polygon class="cls-5" points="55 2.63 54.99 2.64 55 2.64 55 2.63"/><path class="cls-6" d="M347.25,126.92s-12.79,4-14.36,13.92-11.72,16.36-11.72,16.36L332,158.92l-1.41,8.89,10.82-4.35S334.59,149.2,347.25,126.92Z" transform="translate(-305 -105.36)"/><circle cx="40" cy="38.64" r="7"/><circle class="cls-4" cx="41" cy="37.64" r="5"/><circle class="cls-4" cx="71" cy="37.64" r="5"/><path class="cls-9" d="M363.94,186.39s.88,4.11-3.94,4.11V180h3.94Zm-7.88,0s-.88,4.11,3.94,4.11V180h-3.94Z" transform="translate(-305 -105.36)"/></svg>